<mxfile host="app.diagrams.net" modified="2024-03-24T13:34:21.628Z" agent="Mozilla/5.0 (Windows NT 10.0; Win64; x64) AppleWebKit/537.36 (KHTML, like Gecko) Chrome/122.0.0.0 Safari/537.36 Edg/122.0.0.0" etag="Pzioo-DJzIK3Zj7STpqm" version="24.1.0" type="github">
  <diagram id="6a731a19-8d31-9384-78a2-239565b7b9f0" name="Page-1">
    <mxGraphModel dx="1183" dy="841" grid="1" gridSize="10" guides="1" tooltips="1" connect="1" arrows="1" fold="1" page="1" pageScale="1" pageWidth="1169" pageHeight="827" background="none" math="0" shadow="0">
      <root>
        <mxCell id="0" />
        <mxCell id="1" parent="0" />
        <mxCell id="CbXRHF5RCjZEcm-ztMFM-55" value="" style="ellipse;whiteSpace=wrap;html=1;aspect=fixed;fillColor=#050505;strokeWidth=2;" vertex="1" parent="1">
          <mxGeometry x="20" y="405" width="30" height="30" as="geometry" />
        </mxCell>
        <mxCell id="CbXRHF5RCjZEcm-ztMFM-56" value="" style="group;strokeWidth=2;" vertex="1" connectable="0" parent="1">
          <mxGeometry x="90" y="380" width="300" height="80" as="geometry" />
        </mxCell>
        <mxCell id="CbXRHF5RCjZEcm-ztMFM-57" value="&lt;font style=&quot;font-size: 20px;&quot;&gt;用户是否登录&lt;/font&gt;" style="rhombus;whiteSpace=wrap;html=1;strokeWidth=2;" vertex="1" parent="CbXRHF5RCjZEcm-ztMFM-56">
          <mxGeometry width="260" height="80" as="geometry" />
        </mxCell>
        <mxCell id="CbXRHF5RCjZEcm-ztMFM-58" value="&lt;font style=&quot;font-size: 20px;&quot;&gt;是&lt;/font&gt;" style="text;html=1;align=center;verticalAlign=middle;whiteSpace=wrap;rounded=0;strokeWidth=2;" vertex="1" parent="CbXRHF5RCjZEcm-ztMFM-56">
          <mxGeometry x="240" y="4" width="60" height="30" as="geometry" />
        </mxCell>
        <mxCell id="CbXRHF5RCjZEcm-ztMFM-59" value="" style="group;strokeWidth=2;" vertex="1" connectable="0" parent="1">
          <mxGeometry x="160" y="510" width="120" height="60" as="geometry" />
        </mxCell>
        <mxCell id="CbXRHF5RCjZEcm-ztMFM-60" value="&lt;font style=&quot;font-size: 20px;&quot;&gt;用户登录&lt;/font&gt;" style="rounded=0;whiteSpace=wrap;html=1;strokeWidth=2;" vertex="1" parent="CbXRHF5RCjZEcm-ztMFM-59">
          <mxGeometry width="120" height="60" as="geometry" />
        </mxCell>
        <mxCell id="CbXRHF5RCjZEcm-ztMFM-61" value="" style="endArrow=classic;html=1;rounded=0;entryX=0.5;entryY=0;entryDx=0;entryDy=0;strokeWidth=2;" edge="1" parent="1" target="CbXRHF5RCjZEcm-ztMFM-60">
          <mxGeometry width="50" height="50" relative="1" as="geometry">
            <mxPoint x="219.47" y="460" as="sourcePoint" />
            <mxPoint x="559.47" y="620" as="targetPoint" />
          </mxGeometry>
        </mxCell>
        <mxCell id="CbXRHF5RCjZEcm-ztMFM-62" value="&lt;font style=&quot;font-size: 20px;&quot;&gt;否&lt;/font&gt;" style="text;html=1;align=center;verticalAlign=middle;whiteSpace=wrap;rounded=0;strokeWidth=2;" vertex="1" parent="1">
          <mxGeometry x="209.47" y="460" width="60" height="30" as="geometry" />
        </mxCell>
        <mxCell id="CbXRHF5RCjZEcm-ztMFM-63" value="" style="endArrow=classic;html=1;rounded=0;exitX=1;exitY=0.5;exitDx=0;exitDy=0;entryX=0;entryY=0.5;entryDx=0;entryDy=0;strokeWidth=2;" edge="1" parent="1" source="CbXRHF5RCjZEcm-ztMFM-55" target="CbXRHF5RCjZEcm-ztMFM-57">
          <mxGeometry width="50" height="50" relative="1" as="geometry">
            <mxPoint x="360" y="570" as="sourcePoint" />
            <mxPoint x="410" y="520" as="targetPoint" />
          </mxGeometry>
        </mxCell>
        <mxCell id="CbXRHF5RCjZEcm-ztMFM-64" value="" style="group;strokeWidth=2;" vertex="1" connectable="0" parent="1">
          <mxGeometry x="440" y="220" width="120" height="60" as="geometry" />
        </mxCell>
        <mxCell id="CbXRHF5RCjZEcm-ztMFM-65" style="edgeStyle=orthogonalEdgeStyle;rounded=0;orthogonalLoop=1;jettySize=auto;html=1;exitX=0;exitY=0.5;exitDx=0;exitDy=0;strokeWidth=2;" edge="1" parent="CbXRHF5RCjZEcm-ztMFM-64" source="CbXRHF5RCjZEcm-ztMFM-66">
          <mxGeometry relative="1" as="geometry">
            <mxPoint x="0.31578947368439003" y="29.894736842105317" as="targetPoint" />
          </mxGeometry>
        </mxCell>
        <mxCell id="CbXRHF5RCjZEcm-ztMFM-66" value="&lt;font style=&quot;font-size: 20px;&quot;&gt;选择用户 / 企业&lt;/font&gt;" style="rounded=0;whiteSpace=wrap;html=1;strokeWidth=2;" vertex="1" parent="CbXRHF5RCjZEcm-ztMFM-64">
          <mxGeometry width="120" height="60" as="geometry" />
        </mxCell>
        <mxCell id="CbXRHF5RCjZEcm-ztMFM-67" style="edgeStyle=orthogonalEdgeStyle;rounded=0;orthogonalLoop=1;jettySize=auto;html=1;exitX=1;exitY=0.5;exitDx=0;exitDy=0;strokeWidth=2;" edge="1" parent="CbXRHF5RCjZEcm-ztMFM-64">
          <mxGeometry relative="1" as="geometry">
            <mxPoint y="40" as="targetPoint" />
            <mxPoint x="-80" y="199.95" as="sourcePoint" />
            <Array as="points">
              <mxPoint x="-40" y="200" />
              <mxPoint x="-40" y="40" />
            </Array>
          </mxGeometry>
        </mxCell>
        <mxCell id="CbXRHF5RCjZEcm-ztMFM-70" value="" style="group;strokeWidth=2;" vertex="1" connectable="0" parent="1">
          <mxGeometry x="440" y="560" width="120" height="60" as="geometry" />
        </mxCell>
        <mxCell id="CbXRHF5RCjZEcm-ztMFM-71" style="edgeStyle=orthogonalEdgeStyle;rounded=0;orthogonalLoop=1;jettySize=auto;html=1;exitX=1;exitY=0.5;exitDx=0;exitDy=0;strokeWidth=2;" edge="1" parent="CbXRHF5RCjZEcm-ztMFM-70" source="CbXRHF5RCjZEcm-ztMFM-72">
          <mxGeometry relative="1" as="geometry">
            <mxPoint x="154" y="30.25" as="targetPoint" />
          </mxGeometry>
        </mxCell>
        <mxCell id="CbXRHF5RCjZEcm-ztMFM-72" value="&lt;font style=&quot;font-size: 20px;&quot;&gt;进入需求平台&lt;/font&gt;" style="rounded=0;whiteSpace=wrap;html=1;strokeWidth=2;" vertex="1" parent="CbXRHF5RCjZEcm-ztMFM-70">
          <mxGeometry width="120" height="60" as="geometry" />
        </mxCell>
        <mxCell id="CbXRHF5RCjZEcm-ztMFM-73" value="" style="group;strokeWidth=2;" vertex="1" connectable="0" parent="1">
          <mxGeometry x="594" y="550" width="260" height="80" as="geometry" />
        </mxCell>
        <mxCell id="CbXRHF5RCjZEcm-ztMFM-74" value="&lt;font style=&quot;font-size: 20px;&quot;&gt;是否是企业&lt;/font&gt;" style="rhombus;whiteSpace=wrap;html=1;strokeWidth=2;" vertex="1" parent="CbXRHF5RCjZEcm-ztMFM-73">
          <mxGeometry width="260" height="80" as="geometry" />
        </mxCell>
        <mxCell id="CbXRHF5RCjZEcm-ztMFM-75" value="" style="group;strokeWidth=2;" vertex="1" connectable="0" parent="1">
          <mxGeometry x="640" y="220" width="160" height="60" as="geometry" />
        </mxCell>
        <mxCell id="CbXRHF5RCjZEcm-ztMFM-76" value="&lt;font style=&quot;font-size: 20px;&quot;&gt;编辑待发送消息&lt;/font&gt;" style="rounded=0;whiteSpace=wrap;html=1;strokeWidth=2;" vertex="1" parent="CbXRHF5RCjZEcm-ztMFM-75">
          <mxGeometry width="160" height="60" as="geometry" />
        </mxCell>
        <mxCell id="CbXRHF5RCjZEcm-ztMFM-77" value="&lt;font style=&quot;font-size: 20px;&quot;&gt;交互结束&lt;/font&gt;" style="rounded=1;whiteSpace=wrap;html=1;strokeWidth=2;" vertex="1" parent="1">
          <mxGeometry x="1133" y="354" width="130" height="60" as="geometry" />
        </mxCell>
        <mxCell id="CbXRHF5RCjZEcm-ztMFM-78" style="edgeStyle=orthogonalEdgeStyle;rounded=0;orthogonalLoop=1;jettySize=auto;html=1;exitX=1;exitY=0.5;exitDx=0;exitDy=0;entryX=0;entryY=0.5;entryDx=0;entryDy=0;strokeWidth=2;" edge="1" parent="1">
          <mxGeometry relative="1" as="geometry">
            <mxPoint x="1043" y="504.9999999999998" as="sourcePoint" />
            <mxPoint x="1132" y="384" as="targetPoint" />
            <Array as="points">
              <mxPoint x="1099" y="505" />
              <mxPoint x="1099" y="384" />
            </Array>
          </mxGeometry>
        </mxCell>
        <mxCell id="CbXRHF5RCjZEcm-ztMFM-79" value="&lt;font style=&quot;font-size: 20px;&quot;&gt;寻找感兴趣的需求&lt;/font&gt;" style="rounded=0;whiteSpace=wrap;html=1;strokeWidth=2;" vertex="1" parent="1">
          <mxGeometry x="924" y="475" width="120" height="60" as="geometry" />
        </mxCell>
        <mxCell id="CbXRHF5RCjZEcm-ztMFM-80" style="edgeStyle=orthogonalEdgeStyle;rounded=0;orthogonalLoop=1;jettySize=auto;html=1;exitX=1;exitY=0.5;exitDx=0;exitDy=0;entryX=0;entryY=0.5;entryDx=0;entryDy=0;strokeWidth=2;" edge="1" parent="1">
          <mxGeometry relative="1" as="geometry">
            <mxPoint x="1043" y="659.9999999999998" as="sourcePoint" />
            <mxPoint x="1132" y="384" as="targetPoint" />
            <Array as="points">
              <mxPoint x="1099" y="660" />
              <mxPoint x="1099" y="384" />
            </Array>
          </mxGeometry>
        </mxCell>
        <mxCell id="CbXRHF5RCjZEcm-ztMFM-81" value="&lt;font style=&quot;font-size: 20px;&quot;&gt;发送企业需求&lt;/font&gt;" style="rounded=0;whiteSpace=wrap;html=1;strokeWidth=2;" vertex="1" parent="1">
          <mxGeometry x="924" y="630" width="120" height="60" as="geometry" />
        </mxCell>
        <mxCell id="CbXRHF5RCjZEcm-ztMFM-82" value="" style="endArrow=classic;html=1;rounded=0;entryX=0;entryY=0.5;entryDx=0;entryDy=0;strokeWidth=2;" edge="1" parent="1" target="CbXRHF5RCjZEcm-ztMFM-72">
          <mxGeometry width="50" height="50" relative="1" as="geometry">
            <mxPoint x="350" y="420" as="sourcePoint" />
            <mxPoint x="330" y="650" as="targetPoint" />
            <Array as="points">
              <mxPoint x="400" y="420" />
              <mxPoint x="400" y="590" />
            </Array>
          </mxGeometry>
        </mxCell>
        <mxCell id="CbXRHF5RCjZEcm-ztMFM-83" value="&lt;font style=&quot;font-size: 20px;&quot;&gt;关注 / 取关用户&lt;/font&gt;" style="rounded=0;whiteSpace=wrap;html=1;strokeWidth=2;" vertex="1" parent="1">
          <mxGeometry x="640" y="100" width="160" height="60" as="geometry" />
        </mxCell>
        <mxCell id="CbXRHF5RCjZEcm-ztMFM-84" style="edgeStyle=orthogonalEdgeStyle;rounded=0;orthogonalLoop=1;jettySize=auto;html=1;exitX=1;exitY=0.5;exitDx=0;exitDy=0;entryX=0;entryY=0.5;entryDx=0;entryDy=0;strokeWidth=2;" edge="1" parent="1" source="CbXRHF5RCjZEcm-ztMFM-85">
          <mxGeometry relative="1" as="geometry">
            <mxPoint x="1043" y="250" as="sourcePoint" />
            <mxPoint x="1132" y="384" as="targetPoint" />
            <Array as="points">
              <mxPoint x="1099" y="250" />
              <mxPoint x="1099" y="384" />
            </Array>
          </mxGeometry>
        </mxCell>
        <mxCell id="CbXRHF5RCjZEcm-ztMFM-85" value="&lt;font style=&quot;font-size: 20px;&quot;&gt;点击发送&lt;/font&gt;" style="rounded=0;whiteSpace=wrap;html=1;strokeWidth=2;" vertex="1" parent="1">
          <mxGeometry x="880" y="220" width="120" height="60" as="geometry" />
        </mxCell>
        <mxCell id="CbXRHF5RCjZEcm-ztMFM-86" style="edgeStyle=orthogonalEdgeStyle;rounded=0;orthogonalLoop=1;jettySize=auto;html=1;exitX=1;exitY=0.5;exitDx=0;exitDy=0;entryX=0;entryY=0.5;entryDx=0;entryDy=0;strokeWidth=2;" edge="1" parent="1" source="CbXRHF5RCjZEcm-ztMFM-74" target="CbXRHF5RCjZEcm-ztMFM-81">
          <mxGeometry relative="1" as="geometry">
            <mxPoint x="902" y="660" as="targetPoint" />
          </mxGeometry>
        </mxCell>
        <mxCell id="CbXRHF5RCjZEcm-ztMFM-87" style="edgeStyle=orthogonalEdgeStyle;rounded=0;orthogonalLoop=1;jettySize=auto;html=1;exitX=1;exitY=0.5;exitDx=0;exitDy=0;entryX=0;entryY=0.5;entryDx=0;entryDy=0;strokeWidth=2;" edge="1" parent="1" source="CbXRHF5RCjZEcm-ztMFM-74" target="CbXRHF5RCjZEcm-ztMFM-79">
          <mxGeometry relative="1" as="geometry">
            <mxPoint x="891" y="484" as="targetPoint" />
          </mxGeometry>
        </mxCell>
        <mxCell id="CbXRHF5RCjZEcm-ztMFM-88" value="&lt;font style=&quot;font-size: 20px;&quot;&gt;是&lt;/font&gt;" style="text;html=1;align=center;verticalAlign=middle;whiteSpace=wrap;rounded=0;strokeWidth=2;" vertex="1" parent="1">
          <mxGeometry x="825" y="616" width="60" height="30" as="geometry" />
        </mxCell>
        <mxCell id="CbXRHF5RCjZEcm-ztMFM-89" value="&lt;font style=&quot;font-size: 20px;&quot;&gt;否&lt;/font&gt;" style="text;html=1;align=center;verticalAlign=middle;whiteSpace=wrap;rounded=0;strokeWidth=2;" vertex="1" parent="1">
          <mxGeometry x="825" y="525" width="60" height="30" as="geometry" />
        </mxCell>
        <mxCell id="CbXRHF5RCjZEcm-ztMFM-90" style="edgeStyle=orthogonalEdgeStyle;rounded=0;orthogonalLoop=1;jettySize=auto;html=1;exitX=1;exitY=0.5;exitDx=0;exitDy=0;strokeWidth=2;" edge="1" parent="1" source="CbXRHF5RCjZEcm-ztMFM-66" target="CbXRHF5RCjZEcm-ztMFM-76">
          <mxGeometry relative="1" as="geometry" />
        </mxCell>
        <mxCell id="CbXRHF5RCjZEcm-ztMFM-91" style="edgeStyle=orthogonalEdgeStyle;rounded=0;orthogonalLoop=1;jettySize=auto;html=1;exitX=1;exitY=0.5;exitDx=0;exitDy=0;strokeWidth=2;" edge="1" parent="1" source="CbXRHF5RCjZEcm-ztMFM-66" target="CbXRHF5RCjZEcm-ztMFM-83">
          <mxGeometry relative="1" as="geometry">
            <mxPoint x="642" y="130" as="targetPoint" />
            <Array as="points">
              <mxPoint x="583" y="250" />
              <mxPoint x="583" y="130" />
            </Array>
          </mxGeometry>
        </mxCell>
        <mxCell id="CbXRHF5RCjZEcm-ztMFM-93" style="edgeStyle=orthogonalEdgeStyle;rounded=0;orthogonalLoop=1;jettySize=auto;html=1;exitX=1;exitY=0.5;exitDx=0;exitDy=0;entryX=0;entryY=0.5;entryDx=0;entryDy=0;strokeWidth=2;" edge="1" parent="1" source="CbXRHF5RCjZEcm-ztMFM-76" target="CbXRHF5RCjZEcm-ztMFM-85">
          <mxGeometry relative="1" as="geometry" />
        </mxCell>
        <mxCell id="CbXRHF5RCjZEcm-ztMFM-94" style="edgeStyle=orthogonalEdgeStyle;rounded=0;orthogonalLoop=1;jettySize=auto;html=1;exitX=1;exitY=0.5;exitDx=0;exitDy=0;entryX=0;entryY=0.5;entryDx=0;entryDy=0;strokeWidth=2;" edge="1" parent="1" source="CbXRHF5RCjZEcm-ztMFM-83">
          <mxGeometry relative="1" as="geometry">
            <mxPoint x="1132" y="384" as="targetPoint" />
            <mxPoint x="761" y="130" as="sourcePoint" />
            <Array as="points">
              <mxPoint x="1099" y="130" />
              <mxPoint x="1099" y="384" />
            </Array>
          </mxGeometry>
        </mxCell>
      </root>
    </mxGraphModel>
  </diagram>
</mxfile>
